:SAMPLES-PER-SECOND 30
:FULLY-SPECIFIED
:DEGREES
725
root  18.6818 37.4173 1.99054 161.367 84.5486 164.895
RightUpLeg  -23.9697 -12.1221 3.11622
RightLeg  21.4362 -1.59 -0.909105
RightFoot  2.46566 0.594821 -4.77534
RightToes  7.56698e-010 0 -3.6325e-017
Spine  14.3608 -3.18344 5.54648
Spine1  5.32353 -3.22714 1.59958
HEad  -18.4415 2.26277 -6.46552
LeftShoulder1  -0.412849 4.60765 -31.2531
LeftArm  -4.91423 5.76821 -45.7794
LeftForeArm  31.0448 -6.90035 -8.26494
LeftHand  -0.186035 9.59107 -3.50916
RightShoulder  -0.613649 -5.24562 28.4532
RightArm  10.289 -8.83909 40.2577
RightForeArm  6.37063 10.4962 5.42092
RightHand  -0.656732 6.1049 -6.94875
LeftUpLeg  18.8356 11.6455 -2.33678
LeftLeg  18.1158 5.19822 2.01924
LeftFoot  -22.2009 -0.406694 -5.68859
LeftToes  -2.88401e-009 5.30678e-011 -1.08654e-010
726
root  19.8677 37.3755 1.83004 166.374 85.922 168.923
RightUpLeg  -24.9178 -11.5835 3.89126
RightLeg  24.7718 -1.00319 -0.731715
RightFoot  0.950217 0.694107 -6.3638
RightToes  7.56698e-010 0 -3.6325e-017
Spine  14.3564 -3.13737 7.71398
Spine1  5.05561 -2.94095 1.86002
HEad  -19.0113 3.39908 -7.59222
LeftShoulder1  -0.431529 4.63744 -31.9302
LeftArm  -4.76891 8.35865 -44.7006
LeftForeArm  30.7388 -6.9259 -8.31519
LeftHand  -0.192936 9.42284 -3.86122
RightShoulder  -0.496709 -4.94633 27.6037
RightArm  9.09041 -8.89153 40.0795
RightForeArm  5.4546 10.4888 5.07144
RightHand  -0.658663 5.83815 -7.11947
LeftUpLeg  18.0009 13.1425 -0.86989
LeftLeg  21.6037 3.03775 1.67021
LeftFoot  -20.389 -0.616866 -9.36163
LeftToes  -2.88401e-009 5.30678e-011 -1.08654e-010
727
root  21.006 37.2866 1.77155 173.925 86.279 175.709
RightUpLeg  -25.4945 -11.2513 4.35128
RightLeg  27.9538 -1.10932 -0.876839
RightFoot  -1.49358 0.580704 -6.85176
RightToes  7.56698e-010 0 -3.6325e-017
Spine  14.351 -3.3111 9.15388
Spine1  4.74394 -2.90446 2.33659
HEad  -18.8196 3.48084 -7.81547
LeftShoulder1  -0.392942 4.53872 -31.8328
LeftArm  -5.11182 10.3164 -44.1811
LeftForeArm  31.9651 -6.61626 -8.18471
LeftHand  -0.217119 9.27344 -4.71553
RightShoulder  -0.537198 -5.05974 27.7226
RightArm  8.36026 -8.43324 39.2932
RightForeArm  4.72323 11.1373 4.75137
RightHand  -0.662891 5.67384 -7.25707
LeftUpLeg  15.6001 14.392 1.18397
LeftLeg  28.112 0.280551 0.468174
LeftFoot  -17.1545 -0.566191 -13.381
LeftToes  -2.88401e-009 5.30678e-011 -1.08654e-010
728
root  22.043 37.2209 1.76613 -173.478 86.2777 -172.196
RightUpLeg  -25.4955 -10.8057 5.09802
RightLeg  30.3186 -1.64915 -1.28726
RightFoot  -3.31689 0.509033 -7.54396
RightToes  7.56698e-010 0 -3.6325e-017
Spine  15.016 -3.51733 10.4589
Spine1  3.88549 -2.88667 2.94698
HEad  -18.8036 4.0264 -8.02191
LeftShoulder1  -0.388299 4.53329 -31.5861
LeftArm  -5.54917 11.737 -43.8631
LeftForeArm  32.7017 -6.90326 -7.94723
LeftHand  -0.203442 9.18536 -4.43114
RightShoulder  -0.508499 -4.98302 27.5451
RightArm  7.73983 -8.05239 38.9113
RightForeArm  3.59518 12.3718 4.44425
RightHand  -0.61355 5.59785 -6.78775
LeftUpLeg  11.4718 15.0522 3.60323
LeftLeg  37.1503 -1.84582 -1.09893
LeftFoot  -10.6131 0.121218 -14.8287
LeftToes  -2.88401e-009 5.30678e-011 -1.08654e-010
729
root  22.9967 37.2036 1.795 -167.454 85.3719 -166.332
RightUpLeg  -24.7541 -11.036 5.5132
RightLeg  31.8874 -2.22123 -1.74428
RightFoot  -5.48355 0.345762 -7.45993
RightToes  7.56698e-010 0 -3.6325e-017
Spine  15.4132 -3.83055 11.4547
Spine1  3.65827 -3.01526 3.36384
HEad  -18.5963 3.67653 -7.93107
LeftShoulder1  -0.339575 4.41354 -31.1551
LeftArm  -5.65083 11.87 -43.6616
LeftForeArm  32.6713 -7.54196 -7.81248
LeftHand  -0.245084 9.61353 -5.03791
RightShoulder  -0.538846 -5.06001 27.8251
RightArm  7.59377 -6.98176 38.616
RightForeArm  1.56815 13.8413 4.34223
RightHand  -0.679443 6.10745 -7.17473
LeftUpLeg  6.15375 14.0978 5.04418
LeftLeg  46.7048 -1.63391 -1.41516
LeftFoot  -0.588135 1.09297 -11.6238
LeftToes  -2.88401e-009 5.30678e-011 -1.08654e-010
730
root  23.8348 37.2112 1.82388 -166.465 83.9211 -164.994
RightUpLeg  -23.3564 -12.0437 5.70428
RightLeg  32.9505 -2.66355 -2.11858
RightFoot  -7.37311 0.204178 -7.32032
RightToes  7.56698e-010 0 -3.6325e-017
Spine  15.9787 -4.27456 12.4928
Spine1  3.68681 -3.14034 3.56687
HEad  -18.1815 2.51315 -7.29578
LeftShoulder1  -0.242034 4.16204 -30.659
LeftArm  -5.36004 11.204 -43.6158
LeftForeArm  31.5564 -8.83059 -7.6686
LeftHand  -0.243632 9.79521 -4.7707
RightShoulder  -0.54835 -5.08148 27.9645
RightArm  7.63671 -5.90364 38.6534
RightForeArm  0.135136 15.6031 4.3056
RightHand  -0.731694 5.94853 -7.8032
LeftUpLeg  1.27976 11.7942 5.89067
LeftLeg  54.4335 -0.927155 -0.907321
LeftFoot  4.8835 1.29957 -9.20794
LeftToes  -2.88401e-009 5.30678e-011 -1.08654e-010
731
root  24.7378 37.4434 1.84037 -172.049 83.3739 -169.896
RightUpLeg  -20.5653 -12.4281 4.88661
RightLeg  32.3139 -2.96856 -2.28303
RightFoot  -8.52618 0.117876 -7.11486
RightToes  7.56698e-010 0 -3.6325e-017
Spine  16.3671 -4.14017 12.5749
Spine1  3.96446 -2.8219 3.40109
HEad  -17.1505 1.4083 -7.21874
LeftShoulder1  -0.250788 4.18194 -30.843
LeftArm  -3.58932 10.0779 -43.1783
LeftForeArm  28.624 -11.3823 -7.34346
LeftHand  -0.205529 9.3741 -4.23407
RightShoulder  -0.547093 -5.08523 27.8046
RightArm  7.60793 -4.86298 38.9573
RightForeArm  -0.37684 17.3831 4.29696
RightHand  -0.758883 5.74349 -8.21588
LeftUpLeg  -2.25251 10.1593 6.0077
LeftLeg  59.2031 -0.417628 -0.215932
LeftFoot  2.59205 1.03676 -8.602
LeftToes  -2.88401e-009 5.30678e-011 -1.08654e-010
732
root  25.653 37.732 1.8361 179.593 83.6369 -177.958
RightUpLeg  -17.9079 -11.9776 3.60036
RightLeg  31.1277 -3.26295 -2.38104
RightFoot  -9.40458 0.0478975 -6.57253
RightToes  7.56698e-010 0 -3.6325e-017
Spine  16.1944 -3.74199 12.6462
Spine1  4.05788 -2.02961 1.80511
HEad  -16.1997 0.782982 -6.84566
LeftShoulder1  -0.241481 4.16588 -30.3273
LeftArm  -0.539633 9.90935 -43.3967
LeftForeArm  23.4675 -15.5809 -6.11097
LeftHand  -0.139395 8.56881 -3.24432
RightShoulder  -0.538654 -5.0522 27.9675
RightArm  7.93947 -4.10562 39.1586
RightForeArm  -0.778192 19.5056 4.45136
RightHand  -0.773511 6.42283 -7.91498
LeftUpLeg  -5.62416 9.25955 5.36994
LeftLeg  60.9735 -0.141095 0.301556
LeftFoot  1.92409 0.831002 -7.24698
LeftToes  -2.88401e-009 5.30678e-011 -1.08654e-010
733
root  26.5867 38.0609 1.79672 171.237 83.6201 174.019
RightUpLeg  -14.8543 -11.7922 2.27056
RightLeg  29.2981 -3.38149 -2.30644
RightFoot  -10.0021 0.00275588 -6.0219
RightToes  7.56698e-010 0 -3.6325e-017
Spine  15.5422 -3.19099 12.3184
Spine1  4.56974 -1.43618 1.33963
HEad  -15 -0.121644 -7.37944
LeftShoulder1  -0.263616 4.21682 -30.8352
LeftArm  2.18314 9.63876 -43.2236
LeftForeArm  18.3717 -20.3408 -4.62557
LeftHand  -0.126168 8.81498 -2.46922
RightShoulder  -0.48861 -4.94487 27.0665
RightArm  8.02074 -3.67446 39.8783
RightForeArm  0.0132768 21.8907 4.7098
RightHand  -0.699273 6.09497 -7.38577
LeftUpLeg  -8.37857 7.87176 4.54555
LeftLeg  60.1953 0.08607 0.730232
LeftFoot  0.787242 0.735978 -6.96692
LeftToes  -2.88401e-009 5.30678e-011 -1.08654e-010
734
root  27.5131 38.3631 1.74365 166.009 83.3734 168.964
RightUpLeg  -11.8478 -12.2188 1.21842
RightLeg  27.1142 -3.11887 -1.97088
RightFoot  -10.4054 -0.0232368 -5.75248
RightToes  7.56698e-010 0 -3.6325e-017
Spine  15.1592 -3.04918 12.6029
Spine1  4.07161 -0.996352 -0.135065
HEad  -13.7716 -0.534241 -7.38784
LeftShoulder1  -0.255788 4.20442 -30.3915
LeftArm  0.661951 10.5506 -43.3127
LeftForeArm  17.8728 -25.2405 -4.33672
LeftHand  -0.072788 7.48038 -1.65436
RightShoulder  -0.526622 -5.05493 27.1439
RightArm  9.23957 -3.07255 39.909
RightForeArm  0.793913 24.5567 5.21171
RightHand  -0.708474 5.73933 -7.68889
LeftUpLeg  -10.9292 6.36537 4.0055
LeftLeg  57.5742 -0.0461296 0.453561
LeftFoot  -0.906408 0.61473 -6.6669
LeftToes  -2.88401e-009 5.30678e-011 -1.08654e-010
735
root  28.3969 38.6229 1.67728 161.089 83.1711 164.141
RightUpLeg  -8.98739 -12.4733 0.0986242
RightLeg  24.9107 -2.90157 -1.52758
RightFoot  -10.8078 -0.0481023 -5.27593
RightToes  7.56698e-010 0 -3.6325e-017
Spine  14.9218 -2.93102 12.5356
Spine1  3.40189 -0.734872 -1.29159
HEad  -12.9043 -0.405641 -7.60221
LeftShoulder1  -0.301449 4.3352 -30.1143
LeftArm  -1.57912 11.0534 -43.1292
LeftForeArm  19.4072 -29.572 -5.35372
LeftHand  -0.0545731 7.02886 -1.09475
RightShoulder  -0.553352 -5.13037 27.2421
RightArm  9.55166 -2.64231 39.9419
RightForeArm  1.5786 27.5944 5.87242
RightHand  -0.756443 6.43177 -7.75096
LeftUpLeg  -13.1062 4.87948 3.4158
LeftLeg  53.342 -0.29857 0.0268568
LeftFoot  -2.54712 0.516832 -6.52535
LeftToes  -2.88401e-009 5.30678e-011 -1.08654e-010
736
root  29.2654 38.8138 1.59323 156.306 83.1114 159.648
RightUpLeg  -5.96179 -11.9329 -1.04256
RightLeg  22.7439 -3.3251 -1.11808
RightFoot  -11.3831 -0.0786942 -4.66236
RightToes  7.56698e-010 0 -3.6325e-017
Spine  14.808 -2.58636 12.211
Spine1  2.9785 -0.38812 -1.92161
HEad  -12.356 -0.816961 -8.31848
LeftShoulder1  -0.256449 4.20998 -30.1768
LeftArm  -2.98881 11.1007 -43.1056
LeftForeArm  21.9604 -33.2455 -6.10959
LeftHand  -0.0469002 6.30236 -1.31687
RightShoulder  -0.546622 -5.12745 26.8853
RightArm  8.93183 -2.59022 40.0237
RightForeArm  3.68477 30.7667 6.52977
RightHand  -0.709745 6.69782 -7.14324
LeftUpLeg  -14.5385 3.60096 2.91321
LeftLeg  47.8453 -0.44608 -0.0997702
LeftFoot  -3.39563 0.486282 -6.70305
LeftToes  -2.88401e-009 5.30678e-011 -1.08654e-010
